<?xml version="1.0" encoding="utf-8"?>
<svg viewBox="98.794 99 202.333 163.531" xmlns="http://www.w3.org/2000/svg" xmlns:bx="https://boxy-svg.com">
  <defs>
    <bx:guide x="227.211" y="199.078" angle="0"/>
  </defs>
  <path style="stroke-dasharray: none; stroke-opacity: 1; fill-rule: nonzero; paint-order: fill; fill: rgb(255, 255, 255); stroke: rgb(26, 26, 26); stroke-width: 2px;" d="M 98.925 262.531 L 200.021 262.531 L 301.116 262.531 L 301.116 262.031 L 301.116 261.531 C 301.116 246.171 301.117 230.991 301.118 216.687 C 301.118 202.384 301.119 188.956 301.119 177.099 L 301.119 176.599 L 301.119 176.099 L 263.871 176.099 L 226.622 176.099 L 226.622 167.448 L 226.622 158.797 L 263.875 158.797 L 301.127 158.797 L 301.127 128.899 L 301.127 99 L 199.961 99 L 98.794 99 L 98.794 127.694 L 98.794 156.388 L 133.932 156.546 L 169.07 156.704 C 169.254 156.746 169.679 156.826 170.289 157.079 C 170.899 157.332 171.695 157.759 172.621 158.497 C 173.584 159.264 174.506 160.257 175.188 161.636 C 175.869 163.014 176.31 164.779 176.31 167.088 C 176.31 169.398 175.907 171.118 175.283 172.431 C 174.659 173.743 173.814 174.647 172.93 175.326 C 172.089 175.972 171.365 176.328 170.811 176.527 C 170.258 176.726 169.875 176.769 169.715 176.788 L 134.32 176.838 L 98.925 176.888 L 98.925 219.709 L 98.925 262.531 M 227.211 197.6 L 227.211 194.332 L 256.274 194.366 L 285.333 194.402 L 285.337 220.231 L 285.341 246.06 L 199.633 246.077 L 113.924 246.093 L 113.924 219.939 L 113.924 193.785 L 124.516 193.785 L 135.107 193.785 L 151.874 210.773 L 168.64 227.761 L 181.076 227.761 L 193.512 227.761 L 176.613 210.721 L 159.713 193.68 C 161.318 193.673 163.338 193.664 165.202 193.656 C 167.065 193.649 168.771 193.643 169.748 193.643 C 170.262 193.643 171.988 193.498 174.276 192.916 C 176.565 192.333 179.416 191.313 182.179 189.562 C 184.914 187.829 187.638 185.297 189.677 181.74 C 191.717 178.183 193.073 173.601 193.073 167.768 C 193.073 161.932 191.591 157.261 189.395 153.573 C 187.198 149.884 184.288 147.178 181.432 145.269 C 178.547 143.341 175.648 142.141 173.471 141.424 C 171.295 140.706 169.839 140.47 169.839 140.47 L 169.8 140.464 L 169.76 140.457 L 141.853 140.473 L 113.946 140.489 L 113.946 127.094 L 113.946 113.698 L 199.738 113.698 L 285.53 113.698 L 285.53 127.086 L 285.53 140.474 L 246.906 140.474 L 208.281 140.474 L 208.281 184.197 L 208.281 227.919 L 217.748 227.919 L 227.214 227.919 L 227.214 211.125 L 227.214 197.569" id="path351"/>
</svg>